<mxfile host="Electron" modified="2024-08-13T05:47:38.887Z" agent="Mozilla/5.0 (Windows NT 10.0; Win64; x64) AppleWebKit/537.36 (KHTML, like Gecko) draw.io/24.2.5 Chrome/120.0.6099.109 Electron/28.1.0 Safari/537.36" etag="hYCcK0Jl1MtsKmOS832L" version="24.2.5" type="device">
  <diagram name="Page-1" id="MnvTv9DOR8wBDymMynOI">
    <mxGraphModel dx="3500" dy="4408" grid="1" gridSize="10" guides="1" tooltips="1" connect="1" arrows="1" fold="1" page="1" pageScale="1" pageWidth="827" pageHeight="1169" math="0" shadow="0">
      <root>
        <mxCell id="0" />
        <mxCell id="1" parent="0" />
        <mxCell id="tH_8tLo3rWCcOW7ryL8c-207" value="&lt;b style=&quot;font-size: 36px;&quot;&gt;fc_encoder_src_port&lt;/b&gt;" style="rounded=1;whiteSpace=wrap;html=1;" parent="1" vertex="1">
          <mxGeometry x="1341.5" y="-1125" width="400" height="161" as="geometry" />
        </mxCell>
        <mxCell id="tH_8tLo3rWCcOW7ryL8c-171" style="edgeStyle=orthogonalEdgeStyle;rounded=0;orthogonalLoop=1;jettySize=auto;html=1;exitX=0.5;exitY=1;exitDx=0;exitDy=0;" parent="1" edge="1">
          <mxGeometry relative="1" as="geometry">
            <mxPoint x="1901" y="-974" as="sourcePoint" />
            <mxPoint x="1901" y="-974" as="targetPoint" />
          </mxGeometry>
        </mxCell>
        <mxCell id="tH_8tLo3rWCcOW7ryL8c-194" value="&lt;span style=&quot;font-size: 28px;&quot;&gt;&lt;b&gt;[X&lt;sub&gt;64&lt;/sub&gt;,&amp;nbsp; &amp;nbsp; &amp;nbsp; &amp;nbsp; &amp;nbsp; &amp;nbsp; X&lt;sub style=&quot;&quot;&gt;n&lt;/sub&gt;,&amp;nbsp; &amp;nbsp; &amp;nbsp; &amp;nbsp; &amp;nbsp; &amp;nbsp; X&lt;sub style=&quot;&quot;&gt;79&lt;/sub&gt;]&lt;/b&gt;&lt;/span&gt;" style="text;html=1;align=center;verticalAlign=middle;whiteSpace=wrap;rounded=0;" parent="1" vertex="1">
          <mxGeometry x="1310" y="-881" width="463" height="30" as="geometry" />
        </mxCell>
        <mxCell id="tH_8tLo3rWCcOW7ryL8c-202" value="" style="endArrow=classic;html=1;rounded=0;strokeWidth=3;" parent="1" edge="1">
          <mxGeometry width="50" height="50" relative="1" as="geometry">
            <mxPoint x="1540.32" y="-904" as="sourcePoint" />
            <mxPoint x="1540.32" y="-964" as="targetPoint" />
          </mxGeometry>
        </mxCell>
        <mxCell id="tH_8tLo3rWCcOW7ryL8c-205" value="" style="endArrow=classic;html=1;rounded=0;strokeWidth=3;" parent="1" edge="1">
          <mxGeometry width="50" height="50" relative="1" as="geometry">
            <mxPoint x="1540.91" y="-1125" as="sourcePoint" />
            <mxPoint x="1540.91" y="-1185" as="targetPoint" />
          </mxGeometry>
        </mxCell>
        <mxCell id="tH_8tLo3rWCcOW7ryL8c-208" value="&lt;span style=&quot;font-size: 28px;&quot;&gt;&lt;b&gt;[Y&lt;sub style=&quot;&quot;&gt;128&lt;/sub&gt;,&amp;nbsp; &amp;nbsp; &amp;nbsp; &amp;nbsp; &amp;nbsp;Y&lt;sub style=&quot;&quot;&gt;n&lt;/sub&gt;,&amp;nbsp; &amp;nbsp; &amp;nbsp; &amp;nbsp; &amp;nbsp;Y&lt;sub style=&quot;&quot;&gt;135&lt;/sub&gt;]&lt;/b&gt;&lt;/span&gt;" style="text;html=1;align=center;verticalAlign=middle;whiteSpace=wrap;rounded=0;" parent="1" vertex="1">
          <mxGeometry x="1343.75" y="-1245" width="400" height="30" as="geometry" />
        </mxCell>
        <mxCell id="tH_8tLo3rWCcOW7ryL8c-258" value="&lt;span style=&quot;font-size: 28px;&quot;&gt;&lt;b&gt;[X&lt;sub&gt;96&lt;/sub&gt;]&lt;/b&gt;&lt;/span&gt;" style="text;html=1;align=center;verticalAlign=middle;whiteSpace=wrap;rounded=0;" parent="1" vertex="1">
          <mxGeometry x="2371" y="-881" width="90" height="30" as="geometry" />
        </mxCell>
        <mxCell id="tH_8tLo3rWCcOW7ryL8c-259" value="" style="endArrow=classic;html=1;rounded=0;strokeWidth=3;exitX=0.5;exitY=0;exitDx=0;exitDy=0;" parent="1" source="UWP8bIiaMO9ewAU7Xk2l-576" edge="1">
          <mxGeometry width="50" height="50" relative="1" as="geometry">
            <mxPoint x="2415.47" y="-885.97" as="sourcePoint" />
            <mxPoint x="2415.47" y="-1185.97" as="targetPoint" />
          </mxGeometry>
        </mxCell>
        <mxCell id="tH_8tLo3rWCcOW7ryL8c-261" value="&lt;b style=&quot;font-size: 28px;&quot;&gt;&lt;span style=&quot;&quot;&gt;[Y&lt;/span&gt;&lt;span style=&quot;&quot;&gt;&lt;sub&gt;144&lt;/sub&gt;&lt;/span&gt;&lt;span style=&quot;&quot;&gt;]&lt;/span&gt;&lt;/b&gt;" style="text;html=1;align=center;verticalAlign=middle;whiteSpace=wrap;rounded=0;" parent="1" vertex="1">
          <mxGeometry x="2371" y="-1245" width="90" height="30" as="geometry" />
        </mxCell>
        <mxCell id="UWP8bIiaMO9ewAU7Xk2l-9" value="" style="endArrow=none;dashed=1;html=1;dashPattern=1 3;strokeWidth=2;rounded=0;" parent="1" edge="1">
          <mxGeometry width="50" height="50" relative="1" as="geometry">
            <mxPoint x="1469" y="-1230.23" as="sourcePoint" />
            <mxPoint x="1519" y="-1230.23" as="targetPoint" />
          </mxGeometry>
        </mxCell>
        <mxCell id="UWP8bIiaMO9ewAU7Xk2l-10" value="" style="endArrow=none;dashed=1;html=1;dashPattern=1 3;strokeWidth=2;rounded=0;" parent="1" edge="1">
          <mxGeometry width="50" height="50" relative="1" as="geometry">
            <mxPoint x="1571.5" y="-1230.23" as="sourcePoint" />
            <mxPoint x="1621.5" y="-1230.23" as="targetPoint" />
          </mxGeometry>
        </mxCell>
        <mxCell id="UWP8bIiaMO9ewAU7Xk2l-44" value="" style="rounded=1;whiteSpace=wrap;html=1;" parent="1" vertex="1">
          <mxGeometry x="1096" y="-2055" width="1021" height="440" as="geometry" />
        </mxCell>
        <mxCell id="UWP8bIiaMO9ewAU7Xk2l-45" value="" style="ellipse;whiteSpace=wrap;html=1;aspect=fixed;" parent="1" vertex="1">
          <mxGeometry x="1349.75" y="-1915" width="40" height="40" as="geometry" />
        </mxCell>
        <mxCell id="UWP8bIiaMO9ewAU7Xk2l-46" value="" style="ellipse;whiteSpace=wrap;html=1;aspect=fixed;" parent="1" vertex="1">
          <mxGeometry x="1669.75" y="-1915" width="40" height="40" as="geometry" />
        </mxCell>
        <mxCell id="UWP8bIiaMO9ewAU7Xk2l-49" value="" style="ellipse;whiteSpace=wrap;html=1;aspect=fixed;" parent="1" vertex="1">
          <mxGeometry x="1509.75" y="-1915" width="40" height="40" as="geometry" />
        </mxCell>
        <mxCell id="UWP8bIiaMO9ewAU7Xk2l-50" value="" style="ellipse;whiteSpace=wrap;html=1;aspect=fixed;" parent="1" vertex="1">
          <mxGeometry x="1509.75" y="-2035" width="40" height="40" as="geometry" />
        </mxCell>
        <mxCell id="UWP8bIiaMO9ewAU7Xk2l-51" value="" style="endArrow=none;dashed=1;html=1;dashPattern=1 3;strokeWidth=2;rounded=0;" parent="1" edge="1">
          <mxGeometry width="50" height="50" relative="1" as="geometry">
            <mxPoint x="1399.75" y="-1895" as="sourcePoint" />
            <mxPoint x="1499.75" y="-1895" as="targetPoint" />
          </mxGeometry>
        </mxCell>
        <mxCell id="UWP8bIiaMO9ewAU7Xk2l-52" value="" style="endArrow=none;dashed=1;html=1;dashPattern=1 3;strokeWidth=2;rounded=0;" parent="1" edge="1">
          <mxGeometry width="50" height="50" relative="1" as="geometry">
            <mxPoint x="1559.75" y="-1895.25" as="sourcePoint" />
            <mxPoint x="1659.75" y="-1895.25" as="targetPoint" />
          </mxGeometry>
        </mxCell>
        <mxCell id="UWP8bIiaMO9ewAU7Xk2l-56" value="" style="endArrow=none;html=1;rounded=0;exitX=0.5;exitY=0;exitDx=0;exitDy=0;entryX=0.5;entryY=1;entryDx=0;entryDy=0;" parent="1" source="UWP8bIiaMO9ewAU7Xk2l-45" target="UWP8bIiaMO9ewAU7Xk2l-50" edge="1">
          <mxGeometry width="50" height="50" relative="1" as="geometry">
            <mxPoint x="1379.75" y="-1905" as="sourcePoint" />
            <mxPoint x="1419.75" y="-1985" as="targetPoint" />
          </mxGeometry>
        </mxCell>
        <mxCell id="UWP8bIiaMO9ewAU7Xk2l-60" value="" style="endArrow=none;html=1;rounded=0;exitX=0.5;exitY=0;exitDx=0;exitDy=0;entryX=0.5;entryY=1;entryDx=0;entryDy=0;" parent="1" source="UWP8bIiaMO9ewAU7Xk2l-49" target="UWP8bIiaMO9ewAU7Xk2l-50" edge="1">
          <mxGeometry width="50" height="50" relative="1" as="geometry">
            <mxPoint x="1639.75" y="-1985" as="sourcePoint" />
            <mxPoint x="1539.75" y="-1905" as="targetPoint" />
          </mxGeometry>
        </mxCell>
        <mxCell id="UWP8bIiaMO9ewAU7Xk2l-61" value="" style="endArrow=none;html=1;rounded=0;exitX=0.5;exitY=0;exitDx=0;exitDy=0;entryX=0.5;entryY=1;entryDx=0;entryDy=0;" parent="1" source="UWP8bIiaMO9ewAU7Xk2l-46" target="UWP8bIiaMO9ewAU7Xk2l-50" edge="1">
          <mxGeometry width="50" height="50" relative="1" as="geometry">
            <mxPoint x="1639.75" y="-1985" as="sourcePoint" />
            <mxPoint x="1539.75" y="-1905" as="targetPoint" />
          </mxGeometry>
        </mxCell>
        <mxCell id="UWP8bIiaMO9ewAU7Xk2l-64" value="&lt;b&gt;&lt;font style=&quot;font-size: 24px;&quot;&gt;output layer (1 neuron)&lt;/font&gt;&lt;/b&gt;" style="text;html=1;align=center;verticalAlign=middle;whiteSpace=wrap;rounded=0;" parent="1" vertex="1">
          <mxGeometry x="1744.75" y="-2035" width="360" height="30" as="geometry" />
        </mxCell>
        <mxCell id="UWP8bIiaMO9ewAU7Xk2l-65" value="&lt;b&gt;&lt;font style=&quot;font-size: 24px;&quot;&gt;hidden layer2 (32 neurons)&lt;/font&gt;&lt;/b&gt;" style="text;html=1;align=center;verticalAlign=middle;whiteSpace=wrap;rounded=0;" parent="1" vertex="1">
          <mxGeometry x="1757" y="-1910" width="360" height="30" as="geometry" />
        </mxCell>
        <mxCell id="UWP8bIiaMO9ewAU7Xk2l-66" value="" style="ellipse;whiteSpace=wrap;html=1;aspect=fixed;" parent="1" vertex="1">
          <mxGeometry x="1349.75" y="-1795" width="40" height="40" as="geometry" />
        </mxCell>
        <mxCell id="UWP8bIiaMO9ewAU7Xk2l-67" value="" style="ellipse;whiteSpace=wrap;html=1;aspect=fixed;" parent="1" vertex="1">
          <mxGeometry x="1669.75" y="-1795" width="40" height="40" as="geometry" />
        </mxCell>
        <mxCell id="UWP8bIiaMO9ewAU7Xk2l-68" value="" style="ellipse;whiteSpace=wrap;html=1;aspect=fixed;" parent="1" vertex="1">
          <mxGeometry x="1509.75" y="-1795" width="40" height="40" as="geometry" />
        </mxCell>
        <mxCell id="UWP8bIiaMO9ewAU7Xk2l-69" value="" style="endArrow=none;dashed=1;html=1;dashPattern=1 3;strokeWidth=2;rounded=0;" parent="1" edge="1">
          <mxGeometry width="50" height="50" relative="1" as="geometry">
            <mxPoint x="1399.75" y="-1775" as="sourcePoint" />
            <mxPoint x="1499.75" y="-1775" as="targetPoint" />
          </mxGeometry>
        </mxCell>
        <mxCell id="UWP8bIiaMO9ewAU7Xk2l-70" value="" style="endArrow=none;dashed=1;html=1;dashPattern=1 3;strokeWidth=2;rounded=0;" parent="1" edge="1">
          <mxGeometry width="50" height="50" relative="1" as="geometry">
            <mxPoint x="1559.75" y="-1775.25" as="sourcePoint" />
            <mxPoint x="1659.75" y="-1775.25" as="targetPoint" />
          </mxGeometry>
        </mxCell>
        <mxCell id="UWP8bIiaMO9ewAU7Xk2l-71" value="" style="endArrow=none;html=1;rounded=0;exitX=0.5;exitY=0;exitDx=0;exitDy=0;entryX=0.5;entryY=1;entryDx=0;entryDy=0;" parent="1" source="UWP8bIiaMO9ewAU7Xk2l-66" target="UWP8bIiaMO9ewAU7Xk2l-49" edge="1">
          <mxGeometry width="50" height="50" relative="1" as="geometry">
            <mxPoint x="1379.75" y="-1905" as="sourcePoint" />
            <mxPoint x="1639.75" y="-1985" as="targetPoint" />
          </mxGeometry>
        </mxCell>
        <mxCell id="UWP8bIiaMO9ewAU7Xk2l-72" value="" style="endArrow=none;html=1;rounded=0;exitX=0.5;exitY=0;exitDx=0;exitDy=0;entryX=0.5;entryY=1;entryDx=0;entryDy=0;" parent="1" source="UWP8bIiaMO9ewAU7Xk2l-66" target="UWP8bIiaMO9ewAU7Xk2l-46" edge="1">
          <mxGeometry width="50" height="50" relative="1" as="geometry">
            <mxPoint x="1379.75" y="-1785" as="sourcePoint" />
            <mxPoint x="1539.75" y="-1865" as="targetPoint" />
          </mxGeometry>
        </mxCell>
        <mxCell id="UWP8bIiaMO9ewAU7Xk2l-73" value="" style="endArrow=none;html=1;rounded=0;entryX=0.5;entryY=1;entryDx=0;entryDy=0;" parent="1" target="UWP8bIiaMO9ewAU7Xk2l-45" edge="1">
          <mxGeometry width="50" height="50" relative="1" as="geometry">
            <mxPoint x="1369.75" y="-1795" as="sourcePoint" />
            <mxPoint x="1699.75" y="-1865" as="targetPoint" />
          </mxGeometry>
        </mxCell>
        <mxCell id="UWP8bIiaMO9ewAU7Xk2l-74" value="" style="endArrow=none;html=1;rounded=0;entryX=0.5;entryY=1;entryDx=0;entryDy=0;exitX=0.5;exitY=0;exitDx=0;exitDy=0;" parent="1" source="UWP8bIiaMO9ewAU7Xk2l-68" target="UWP8bIiaMO9ewAU7Xk2l-49" edge="1">
          <mxGeometry width="50" height="50" relative="1" as="geometry">
            <mxPoint x="1379.75" y="-1785" as="sourcePoint" />
            <mxPoint x="1379.75" y="-1865" as="targetPoint" />
          </mxGeometry>
        </mxCell>
        <mxCell id="UWP8bIiaMO9ewAU7Xk2l-75" value="" style="endArrow=none;html=1;rounded=0;entryX=0.5;entryY=1;entryDx=0;entryDy=0;exitX=0.5;exitY=0;exitDx=0;exitDy=0;" parent="1" source="UWP8bIiaMO9ewAU7Xk2l-68" target="UWP8bIiaMO9ewAU7Xk2l-46" edge="1">
          <mxGeometry width="50" height="50" relative="1" as="geometry">
            <mxPoint x="1539.75" y="-1785" as="sourcePoint" />
            <mxPoint x="1539.75" y="-1865" as="targetPoint" />
          </mxGeometry>
        </mxCell>
        <mxCell id="UWP8bIiaMO9ewAU7Xk2l-76" value="" style="endArrow=none;html=1;rounded=0;entryX=0.5;entryY=0;entryDx=0;entryDy=0;exitX=0.5;exitY=1;exitDx=0;exitDy=0;" parent="1" source="UWP8bIiaMO9ewAU7Xk2l-45" target="UWP8bIiaMO9ewAU7Xk2l-68" edge="1">
          <mxGeometry width="50" height="50" relative="1" as="geometry">
            <mxPoint x="1539.75" y="-1785" as="sourcePoint" />
            <mxPoint x="1699.75" y="-1865" as="targetPoint" />
          </mxGeometry>
        </mxCell>
        <mxCell id="UWP8bIiaMO9ewAU7Xk2l-77" value="" style="endArrow=none;html=1;rounded=0;entryX=0.5;entryY=0;entryDx=0;entryDy=0;exitX=0.5;exitY=1;exitDx=0;exitDy=0;" parent="1" source="UWP8bIiaMO9ewAU7Xk2l-45" target="UWP8bIiaMO9ewAU7Xk2l-67" edge="1">
          <mxGeometry width="50" height="50" relative="1" as="geometry">
            <mxPoint x="1539.75" y="-1785" as="sourcePoint" />
            <mxPoint x="1699.75" y="-1865" as="targetPoint" />
          </mxGeometry>
        </mxCell>
        <mxCell id="UWP8bIiaMO9ewAU7Xk2l-78" value="" style="endArrow=none;html=1;rounded=0;entryX=0.5;entryY=0;entryDx=0;entryDy=0;exitX=0.5;exitY=1;exitDx=0;exitDy=0;" parent="1" source="UWP8bIiaMO9ewAU7Xk2l-49" target="UWP8bIiaMO9ewAU7Xk2l-67" edge="1">
          <mxGeometry width="50" height="50" relative="1" as="geometry">
            <mxPoint x="1379.75" y="-1865" as="sourcePoint" />
            <mxPoint x="1699.75" y="-1785" as="targetPoint" />
          </mxGeometry>
        </mxCell>
        <mxCell id="UWP8bIiaMO9ewAU7Xk2l-79" value="" style="endArrow=none;html=1;rounded=0;entryX=0.5;entryY=0;entryDx=0;entryDy=0;" parent="1" target="UWP8bIiaMO9ewAU7Xk2l-67" edge="1">
          <mxGeometry width="50" height="50" relative="1" as="geometry">
            <mxPoint x="1689.75" y="-1875" as="sourcePoint" />
            <mxPoint x="1699.75" y="-1785" as="targetPoint" />
          </mxGeometry>
        </mxCell>
        <mxCell id="UWP8bIiaMO9ewAU7Xk2l-80" style="edgeStyle=orthogonalEdgeStyle;rounded=0;orthogonalLoop=1;jettySize=auto;html=1;exitX=0.5;exitY=1;exitDx=0;exitDy=0;" parent="1" source="UWP8bIiaMO9ewAU7Xk2l-65" target="UWP8bIiaMO9ewAU7Xk2l-65" edge="1">
          <mxGeometry relative="1" as="geometry" />
        </mxCell>
        <mxCell id="UWP8bIiaMO9ewAU7Xk2l-81" value="&lt;b&gt;&lt;font style=&quot;font-size: 24px;&quot;&gt;hidden layer1 (32 neurons)&lt;/font&gt;&lt;/b&gt;" style="text;html=1;align=center;verticalAlign=middle;whiteSpace=wrap;rounded=0;" parent="1" vertex="1">
          <mxGeometry x="1757" y="-1790" width="360" height="30" as="geometry" />
        </mxCell>
        <mxCell id="UWP8bIiaMO9ewAU7Xk2l-82" value="" style="endArrow=classic;html=1;rounded=0;strokeWidth=3;" parent="1" edge="1">
          <mxGeometry width="50" height="50" relative="1" as="geometry">
            <mxPoint x="1294.54" y="-1555" as="sourcePoint" />
            <mxPoint x="1294.54" y="-1615" as="targetPoint" />
          </mxGeometry>
        </mxCell>
        <mxCell id="UWP8bIiaMO9ewAU7Xk2l-83" value="" style="endArrow=classic;html=1;rounded=0;strokeWidth=3;" parent="1" edge="1">
          <mxGeometry width="50" height="50" relative="1" as="geometry">
            <mxPoint x="1528.3300000000002" y="-1555" as="sourcePoint" />
            <mxPoint x="1528.3300000000002" y="-1615" as="targetPoint" />
          </mxGeometry>
        </mxCell>
        <mxCell id="UWP8bIiaMO9ewAU7Xk2l-84" value="" style="endArrow=classic;html=1;rounded=0;strokeWidth=3;" parent="1" edge="1">
          <mxGeometry width="50" height="50" relative="1" as="geometry">
            <mxPoint x="1742.5" y="-1555" as="sourcePoint" />
            <mxPoint x="1742.5" y="-1615" as="targetPoint" />
          </mxGeometry>
        </mxCell>
        <mxCell id="UWP8bIiaMO9ewAU7Xk2l-91" value="&lt;span style=&quot;font-size: 28px;&quot;&gt;&lt;b&gt;[Y&lt;sub&gt;0&lt;/sub&gt;,&amp;nbsp; &amp;nbsp; &amp;nbsp; &amp;nbsp; &amp;nbsp; &amp;nbsp; &amp;nbsp; &amp;nbsp; &amp;nbsp; &amp;nbsp; &amp;nbsp; &amp;nbsp; Y&lt;sub style=&quot;&quot;&gt;n&lt;/sub&gt;,&amp;nbsp; &amp;nbsp; &amp;nbsp; &amp;nbsp; &amp;nbsp; &amp;nbsp; &amp;nbsp; &amp;nbsp; &amp;nbsp; &amp;nbsp; &amp;nbsp; &amp;nbsp;Y&lt;sub style=&quot;&quot;&gt;144&lt;/sub&gt;]&lt;/b&gt;&lt;/span&gt;" style="text;html=1;align=center;verticalAlign=middle;whiteSpace=wrap;rounded=0;" parent="1" vertex="1">
          <mxGeometry x="1137.75" y="-1530" width="800" height="30" as="geometry" />
        </mxCell>
        <mxCell id="UWP8bIiaMO9ewAU7Xk2l-92" value="" style="endArrow=none;dashed=1;html=1;dashPattern=1 3;strokeWidth=2;rounded=0;" parent="1" edge="1">
          <mxGeometry width="50" height="50" relative="1" as="geometry">
            <mxPoint x="1361.25" y="-1515.5" as="sourcePoint" />
            <mxPoint x="1461.25" y="-1515.5" as="targetPoint" />
          </mxGeometry>
        </mxCell>
        <mxCell id="UWP8bIiaMO9ewAU7Xk2l-93" value="" style="endArrow=none;dashed=1;html=1;dashPattern=1 3;strokeWidth=2;rounded=0;" parent="1" edge="1">
          <mxGeometry width="50" height="50" relative="1" as="geometry">
            <mxPoint x="1603.75" y="-1515.4299999999998" as="sourcePoint" />
            <mxPoint x="1703.75" y="-1515.4299999999998" as="targetPoint" />
          </mxGeometry>
        </mxCell>
        <mxCell id="UWP8bIiaMO9ewAU7Xk2l-94" value="&lt;font style=&quot;font-size: 24px;&quot;&gt;&lt;b&gt;&lt;font style=&quot;font-size: 24px;&quot;&gt;input&amp;nbsp;&lt;/font&gt;&lt;/b&gt;&lt;b&gt;&lt;font style=&quot;font-size: 24px;&quot;&gt;(145 neurons)&lt;/font&gt;&lt;/b&gt;&lt;/font&gt;" style="text;html=1;align=center;verticalAlign=middle;whiteSpace=wrap;rounded=0;" parent="1" vertex="1">
          <mxGeometry x="1744.5" y="-1680" width="360" height="30" as="geometry" />
        </mxCell>
        <mxCell id="UWP8bIiaMO9ewAU7Xk2l-95" value="" style="ellipse;whiteSpace=wrap;html=1;aspect=fixed;" parent="1" vertex="1">
          <mxGeometry x="1275.25" y="-1675" width="40" height="40" as="geometry" />
        </mxCell>
        <mxCell id="UWP8bIiaMO9ewAU7Xk2l-96" value="" style="ellipse;whiteSpace=wrap;html=1;aspect=fixed;" parent="1" vertex="1">
          <mxGeometry x="1719.5" y="-1675" width="40" height="40" as="geometry" />
        </mxCell>
        <mxCell id="UWP8bIiaMO9ewAU7Xk2l-97" value="" style="ellipse;whiteSpace=wrap;html=1;aspect=fixed;" parent="1" vertex="1">
          <mxGeometry x="1509.75" y="-1675" width="40" height="40" as="geometry" />
        </mxCell>
        <mxCell id="UWP8bIiaMO9ewAU7Xk2l-99" value="" style="endArrow=none;dashed=1;html=1;dashPattern=1 3;strokeWidth=2;rounded=0;" parent="1" edge="1">
          <mxGeometry width="50" height="50" relative="1" as="geometry">
            <mxPoint x="1560" y="-1655.32" as="sourcePoint" />
            <mxPoint x="1720" y="-1655.32" as="targetPoint" />
          </mxGeometry>
        </mxCell>
        <mxCell id="UWP8bIiaMO9ewAU7Xk2l-100" value="" style="endArrow=none;html=1;rounded=0;exitX=0.5;exitY=0;exitDx=0;exitDy=0;entryX=0.5;entryY=1;entryDx=0;entryDy=0;" parent="1" source="UWP8bIiaMO9ewAU7Xk2l-95" target="UWP8bIiaMO9ewAU7Xk2l-66" edge="1">
          <mxGeometry width="50" height="50" relative="1" as="geometry">
            <mxPoint x="1379.25" y="-1785" as="sourcePoint" />
            <mxPoint x="1700.25" y="-1865" as="targetPoint" />
          </mxGeometry>
        </mxCell>
        <mxCell id="UWP8bIiaMO9ewAU7Xk2l-101" value="" style="endArrow=none;html=1;rounded=0;exitX=0.5;exitY=0;exitDx=0;exitDy=0;entryX=0.5;entryY=1;entryDx=0;entryDy=0;" parent="1" source="UWP8bIiaMO9ewAU7Xk2l-95" target="UWP8bIiaMO9ewAU7Xk2l-68" edge="1">
          <mxGeometry width="50" height="50" relative="1" as="geometry">
            <mxPoint x="1320.25" y="-1685" as="sourcePoint" />
            <mxPoint x="1379.25" y="-1745" as="targetPoint" />
          </mxGeometry>
        </mxCell>
        <mxCell id="UWP8bIiaMO9ewAU7Xk2l-102" value="" style="endArrow=none;html=1;rounded=0;entryX=0.5;entryY=1;entryDx=0;entryDy=0;exitX=0.5;exitY=0;exitDx=0;exitDy=0;" parent="1" source="UWP8bIiaMO9ewAU7Xk2l-95" target="UWP8bIiaMO9ewAU7Xk2l-67" edge="1">
          <mxGeometry width="50" height="50" relative="1" as="geometry">
            <mxPoint x="1315.25" y="-1675" as="sourcePoint" />
            <mxPoint x="1539.25" y="-1745" as="targetPoint" />
          </mxGeometry>
        </mxCell>
        <mxCell id="UWP8bIiaMO9ewAU7Xk2l-103" value="" style="endArrow=none;html=1;rounded=0;entryX=0.5;entryY=0;entryDx=0;entryDy=0;exitX=0.5;exitY=1;exitDx=0;exitDy=0;" parent="1" source="UWP8bIiaMO9ewAU7Xk2l-66" target="UWP8bIiaMO9ewAU7Xk2l-97" edge="1">
          <mxGeometry width="50" height="50" relative="1" as="geometry">
            <mxPoint x="1322.25" y="-1685" as="sourcePoint" />
            <mxPoint x="1700.25" y="-1745" as="targetPoint" />
          </mxGeometry>
        </mxCell>
        <mxCell id="UWP8bIiaMO9ewAU7Xk2l-104" value="" style="endArrow=none;html=1;rounded=0;entryX=0.5;entryY=0;entryDx=0;entryDy=0;exitX=0.5;exitY=1;exitDx=0;exitDy=0;" parent="1" source="UWP8bIiaMO9ewAU7Xk2l-68" target="UWP8bIiaMO9ewAU7Xk2l-96" edge="1">
          <mxGeometry width="50" height="50" relative="1" as="geometry">
            <mxPoint x="1379.25" y="-1745" as="sourcePoint" />
            <mxPoint x="1539.25" y="-1685" as="targetPoint" />
          </mxGeometry>
        </mxCell>
        <mxCell id="UWP8bIiaMO9ewAU7Xk2l-105" value="" style="endArrow=none;html=1;rounded=0;exitX=0.5;exitY=1;exitDx=0;exitDy=0;entryX=0.5;entryY=0;entryDx=0;entryDy=0;" parent="1" source="UWP8bIiaMO9ewAU7Xk2l-67" target="UWP8bIiaMO9ewAU7Xk2l-96" edge="1">
          <mxGeometry width="50" height="50" relative="1" as="geometry">
            <mxPoint x="1539.25" y="-1745" as="sourcePoint" />
            <mxPoint x="1732.25" y="-1695" as="targetPoint" />
          </mxGeometry>
        </mxCell>
        <mxCell id="UWP8bIiaMO9ewAU7Xk2l-106" value="" style="endArrow=none;html=1;rounded=0;exitX=0.5;exitY=0;exitDx=0;exitDy=0;" parent="1" source="UWP8bIiaMO9ewAU7Xk2l-97" edge="1">
          <mxGeometry width="50" height="50" relative="1" as="geometry">
            <mxPoint x="1532.25" y="-1695" as="sourcePoint" />
            <mxPoint x="1692.25" y="-1755" as="targetPoint" />
          </mxGeometry>
        </mxCell>
        <mxCell id="UWP8bIiaMO9ewAU7Xk2l-107" value="" style="endArrow=none;html=1;rounded=0;exitX=0.5;exitY=0;exitDx=0;exitDy=0;" parent="1" source="UWP8bIiaMO9ewAU7Xk2l-97" edge="1">
          <mxGeometry width="50" height="50" relative="1" as="geometry">
            <mxPoint x="1542.25" y="-1685" as="sourcePoint" />
            <mxPoint x="1529.25" y="-1755" as="targetPoint" />
          </mxGeometry>
        </mxCell>
        <mxCell id="UWP8bIiaMO9ewAU7Xk2l-108" value="" style="endArrow=none;html=1;rounded=0;entryX=0.5;entryY=0;entryDx=0;entryDy=0;" parent="1" target="UWP8bIiaMO9ewAU7Xk2l-96" edge="1">
          <mxGeometry width="50" height="50" relative="1" as="geometry">
            <mxPoint x="1372.25" y="-1755" as="sourcePoint" />
            <mxPoint x="1700.25" y="-1745" as="targetPoint" />
          </mxGeometry>
        </mxCell>
        <mxCell id="UWP8bIiaMO9ewAU7Xk2l-110" value="&lt;font style=&quot;font-size: 24px;&quot;&gt;&lt;b&gt;concat&lt;/b&gt;&lt;/font&gt;" style="rounded=1;whiteSpace=wrap;html=1;" parent="1" vertex="1">
          <mxGeometry x="1229.75" y="-1445" width="600" height="80" as="geometry" />
        </mxCell>
        <mxCell id="UWP8bIiaMO9ewAU7Xk2l-113" value="" style="endArrow=classic;html=1;rounded=0;strokeWidth=3;" parent="1" edge="1">
          <mxGeometry width="50" height="50" relative="1" as="geometry">
            <mxPoint x="1528.33" y="-2055" as="sourcePoint" />
            <mxPoint x="1528.33" y="-2115" as="targetPoint" />
          </mxGeometry>
        </mxCell>
        <mxCell id="UWP8bIiaMO9ewAU7Xk2l-114" value="&lt;b style=&quot;&quot;&gt;&lt;font style=&quot;font-size: 28px;&quot;&gt;The log of packet count&lt;/font&gt;&lt;/b&gt;" style="text;html=1;align=center;verticalAlign=middle;whiteSpace=wrap;rounded=0;" parent="1" vertex="1">
          <mxGeometry x="1166" y="-2185" width="725.5" height="30" as="geometry" />
        </mxCell>
        <mxCell id="UWP8bIiaMO9ewAU7Xk2l-116" value="" style="endArrow=none;dashed=1;html=1;dashPattern=1 3;strokeWidth=2;rounded=0;" parent="1" edge="1">
          <mxGeometry width="50" height="50" relative="1" as="geometry">
            <mxPoint x="1337" y="-1655.32" as="sourcePoint" />
            <mxPoint x="1497" y="-1655.32" as="targetPoint" />
          </mxGeometry>
        </mxCell>
        <mxCell id="UWP8bIiaMO9ewAU7Xk2l-120" value="&lt;font color=&quot;#000000&quot;&gt;&lt;span style=&quot;font-size: 24px;&quot;&gt;&lt;b&gt;output shape:&amp;nbsp;&amp;nbsp;&lt;/b&gt;&lt;/span&gt;&lt;b style=&quot;font-size: 24px; background-color: initial;&quot;&gt;[(batch_size, 1)]&lt;/b&gt;&lt;/font&gt;" style="text;html=1;align=center;verticalAlign=middle;whiteSpace=wrap;rounded=0;fillColor=#f5f5f5;fontColor=#333333;strokeColor=#666666;" parent="1" vertex="1">
          <mxGeometry x="1744.75" y="-2210" width="400" height="80" as="geometry" />
        </mxCell>
        <mxCell id="UWP8bIiaMO9ewAU7Xk2l-261" value="&lt;span style=&quot;font-size: 28px;&quot;&gt;&lt;b&gt;[[X&lt;sub&gt;32&lt;/sub&gt;],&amp;nbsp; &amp;nbsp; &amp;nbsp; &amp;nbsp; &amp;nbsp; &amp;nbsp; &amp;nbsp;[X&lt;sub style=&quot;&quot;&gt;n&lt;/sub&gt;],&amp;nbsp; &amp;nbsp; &amp;nbsp; &amp;nbsp; &amp;nbsp; &amp;nbsp; &amp;nbsp; &amp;nbsp;[X&lt;sub style=&quot;&quot;&gt;63&lt;/sub&gt;]]&lt;/b&gt;&lt;/span&gt;" style="text;html=1;align=center;verticalAlign=middle;whiteSpace=wrap;rounded=0;" parent="1" vertex="1">
          <mxGeometry x="846" y="-881" width="444" height="30" as="geometry" />
        </mxCell>
        <mxCell id="UWP8bIiaMO9ewAU7Xk2l-265" value="" style="endArrow=classic;html=1;rounded=0;strokeWidth=3;" parent="1" edge="1">
          <mxGeometry width="50" height="50" relative="1" as="geometry">
            <mxPoint x="1067.4099999999999" y="-905" as="sourcePoint" />
            <mxPoint x="1067.4099999999999" y="-965" as="targetPoint" />
          </mxGeometry>
        </mxCell>
        <mxCell id="UWP8bIiaMO9ewAU7Xk2l-269" value="" style="endArrow=classic;html=1;rounded=0;strokeWidth=3;" parent="1" edge="1">
          <mxGeometry width="50" height="50" relative="1" as="geometry">
            <mxPoint x="1067.58" y="-1125" as="sourcePoint" />
            <mxPoint x="1067.58" y="-1185" as="targetPoint" />
          </mxGeometry>
        </mxCell>
        <mxCell id="UWP8bIiaMO9ewAU7Xk2l-271" value="&lt;span style=&quot;font-size: 28px;&quot;&gt;&lt;b&gt;[Y&lt;sub style=&quot;&quot;&gt;64,&lt;/sub&gt;&amp;nbsp; &amp;nbsp; &amp;nbsp; &amp;nbsp; &amp;nbsp; Y&lt;sub style=&quot;&quot;&gt;n&lt;/sub&gt;,&amp;nbsp; &amp;nbsp; &amp;nbsp; &amp;nbsp; &amp;nbsp;Y&lt;sub style=&quot;&quot;&gt;127&lt;/sub&gt;]&lt;/b&gt;&lt;/span&gt;" style="text;html=1;align=center;verticalAlign=middle;whiteSpace=wrap;rounded=0;" parent="1" vertex="1">
          <mxGeometry x="868" y="-1245" width="400" height="30" as="geometry" />
        </mxCell>
        <mxCell id="UWP8bIiaMO9ewAU7Xk2l-279" value="" style="endArrow=none;dashed=1;html=1;dashPattern=1 3;strokeWidth=2;rounded=0;" parent="1" edge="1">
          <mxGeometry width="50" height="50" relative="1" as="geometry">
            <mxPoint x="968" y="-1230.3400000000001" as="sourcePoint" />
            <mxPoint x="1048" y="-1230.3400000000001" as="targetPoint" />
          </mxGeometry>
        </mxCell>
        <mxCell id="UWP8bIiaMO9ewAU7Xk2l-280" value="" style="endArrow=none;dashed=1;html=1;dashPattern=1 3;strokeWidth=2;rounded=0;" parent="1" edge="1">
          <mxGeometry width="50" height="50" relative="1" as="geometry">
            <mxPoint x="1088" y="-1230.3400000000001" as="sourcePoint" />
            <mxPoint x="1168" y="-1230.3400000000001" as="targetPoint" />
          </mxGeometry>
        </mxCell>
        <mxCell id="UWP8bIiaMO9ewAU7Xk2l-576" value="&lt;b style=&quot;font-size: 36px;&quot;&gt;protocol&lt;/b&gt;" style="rounded=1;whiteSpace=wrap;html=1;" parent="1" vertex="1">
          <mxGeometry x="2316" y="-1130.97" width="200" height="171" as="geometry" />
        </mxCell>
        <mxCell id="UWP8bIiaMO9ewAU7Xk2l-577" value="&lt;b style=&quot;font-size: 36px;&quot;&gt;rnn_dst_ip&lt;/b&gt;" style="rounded=1;whiteSpace=wrap;html=1;" parent="1" vertex="1">
          <mxGeometry x="948" y="-1125" width="240" height="160" as="geometry" />
        </mxCell>
        <mxCell id="UWP8bIiaMO9ewAU7Xk2l-578" value="&lt;b style=&quot;font-size: 36px;&quot;&gt;fc_encoder_dst_port&lt;/b&gt;" style="rounded=1;whiteSpace=wrap;html=1;" parent="1" vertex="1">
          <mxGeometry x="1827.5" y="-1125" width="400" height="161" as="geometry" />
        </mxCell>
        <mxCell id="UWP8bIiaMO9ewAU7Xk2l-579" style="edgeStyle=orthogonalEdgeStyle;rounded=0;orthogonalLoop=1;jettySize=auto;html=1;exitX=0.5;exitY=1;exitDx=0;exitDy=0;" parent="1" edge="1">
          <mxGeometry relative="1" as="geometry">
            <mxPoint x="2694.75" y="-1004" as="sourcePoint" />
            <mxPoint x="2694.75" y="-1004" as="targetPoint" />
          </mxGeometry>
        </mxCell>
        <mxCell id="UWP8bIiaMO9ewAU7Xk2l-580" value="&lt;span style=&quot;font-size: 28px;&quot;&gt;&lt;b&gt;[X&lt;sub&gt;80&lt;/sub&gt;,&amp;nbsp; &amp;nbsp; &amp;nbsp; &amp;nbsp; &amp;nbsp; &amp;nbsp; X&lt;sub style=&quot;&quot;&gt;n&lt;/sub&gt;,&amp;nbsp; &amp;nbsp; &amp;nbsp; &amp;nbsp; &amp;nbsp; &amp;nbsp; X&lt;sub style=&quot;&quot;&gt;95&lt;/sub&gt;]&lt;/b&gt;&lt;/span&gt;" style="text;html=1;align=center;verticalAlign=middle;whiteSpace=wrap;rounded=0;" parent="1" vertex="1">
          <mxGeometry x="1796" y="-881" width="463" height="30" as="geometry" />
        </mxCell>
        <mxCell id="UWP8bIiaMO9ewAU7Xk2l-583" value="" style="endArrow=classic;html=1;rounded=0;strokeWidth=3;" parent="1" edge="1">
          <mxGeometry width="50" height="50" relative="1" as="geometry">
            <mxPoint x="2025.9999999999998" y="-905" as="sourcePoint" />
            <mxPoint x="2025.9999999999998" y="-965" as="targetPoint" />
          </mxGeometry>
        </mxCell>
        <mxCell id="UWP8bIiaMO9ewAU7Xk2l-584" value="" style="endArrow=classic;html=1;rounded=0;strokeWidth=3;" parent="1" edge="1">
          <mxGeometry width="50" height="50" relative="1" as="geometry">
            <mxPoint x="2026" y="-1125" as="sourcePoint" />
            <mxPoint x="2026" y="-1185" as="targetPoint" />
          </mxGeometry>
        </mxCell>
        <mxCell id="UWP8bIiaMO9ewAU7Xk2l-585" value="&lt;span style=&quot;font-size: 28px;&quot;&gt;&lt;b&gt;[Y&lt;sub style=&quot;&quot;&gt;136&lt;/sub&gt;,&amp;nbsp; &amp;nbsp; &amp;nbsp; &amp;nbsp; &amp;nbsp;Y&lt;sub style=&quot;&quot;&gt;n&lt;/sub&gt;,&amp;nbsp; &amp;nbsp; &amp;nbsp; &amp;nbsp; &amp;nbsp;Y&lt;sub style=&quot;&quot;&gt;143&lt;/sub&gt;]&lt;/b&gt;&lt;/span&gt;" style="text;html=1;align=center;verticalAlign=middle;whiteSpace=wrap;rounded=0;" parent="1" vertex="1">
          <mxGeometry x="1827.5" y="-1245" width="400" height="30" as="geometry" />
        </mxCell>
        <mxCell id="UWP8bIiaMO9ewAU7Xk2l-586" value="" style="endArrow=none;dashed=1;html=1;dashPattern=1 3;strokeWidth=2;rounded=0;" parent="1" edge="1">
          <mxGeometry width="50" height="50" relative="1" as="geometry">
            <mxPoint x="1952.75" y="-1230.23" as="sourcePoint" />
            <mxPoint x="2002.75" y="-1230.23" as="targetPoint" />
          </mxGeometry>
        </mxCell>
        <mxCell id="UWP8bIiaMO9ewAU7Xk2l-587" value="" style="endArrow=none;dashed=1;html=1;dashPattern=1 3;strokeWidth=2;rounded=0;" parent="1" edge="1">
          <mxGeometry width="50" height="50" relative="1" as="geometry">
            <mxPoint x="2055.25" y="-1230.23" as="sourcePoint" />
            <mxPoint x="2105.25" y="-1230.23" as="targetPoint" />
          </mxGeometry>
        </mxCell>
        <mxCell id="UWP8bIiaMO9ewAU7Xk2l-590" value="" style="endArrow=classic;html=1;rounded=0;strokeWidth=3;exitX=0.5;exitY=0;exitDx=0;exitDy=0;" parent="1" edge="1">
          <mxGeometry width="50" height="50" relative="1" as="geometry">
            <mxPoint x="2416.11" y="-904.97" as="sourcePoint" />
            <mxPoint x="2415.58" y="-959.97" as="targetPoint" />
          </mxGeometry>
        </mxCell>
        <mxCell id="UWP8bIiaMO9ewAU7Xk2l-595" value="" style="endArrow=none;dashed=1;html=1;dashPattern=1 3;strokeWidth=2;rounded=0;" parent="1" edge="1">
          <mxGeometry width="50" height="50" relative="1" as="geometry">
            <mxPoint x="942" y="-866.59" as="sourcePoint" />
            <mxPoint x="1022" y="-866.59" as="targetPoint" />
          </mxGeometry>
        </mxCell>
        <mxCell id="UWP8bIiaMO9ewAU7Xk2l-596" value="" style="endArrow=none;dashed=1;html=1;dashPattern=1 3;strokeWidth=2;rounded=0;" parent="1" edge="1">
          <mxGeometry width="50" height="50" relative="1" as="geometry">
            <mxPoint x="1108" y="-866.59" as="sourcePoint" />
            <mxPoint x="1188" y="-866.59" as="targetPoint" />
          </mxGeometry>
        </mxCell>
        <mxCell id="UWP8bIiaMO9ewAU7Xk2l-597" value="&lt;b style=&quot;&quot;&gt;&lt;span style=&quot;font-size: 28px;&quot;&gt;[[X&lt;sub&gt;0&lt;/sub&gt;&lt;/span&gt;&lt;span style=&quot;font-size: 28px;&quot;&gt;],&amp;nbsp; &amp;nbsp; &amp;nbsp; &amp;nbsp; &amp;nbsp; &amp;nbsp; &amp;nbsp;[X&lt;/span&gt;&lt;sub style=&quot;font-size: 28px;&quot;&gt;n&lt;/sub&gt;&lt;span style=&quot;font-size: 28px;&quot;&gt;],&amp;nbsp; &amp;nbsp; &amp;nbsp; &amp;nbsp; &amp;nbsp; &amp;nbsp; &amp;nbsp; &amp;nbsp;[X&lt;/span&gt;&lt;span style=&quot;font-size: 28px;&quot;&gt;&lt;sub&gt;31&lt;/sub&gt;&lt;/span&gt;&lt;span style=&quot;font-size: 28px;&quot;&gt;]]&lt;/span&gt;&lt;/b&gt;" style="text;html=1;align=center;verticalAlign=middle;whiteSpace=wrap;rounded=0;" parent="1" vertex="1">
          <mxGeometry x="366" y="-881" width="444" height="30" as="geometry" />
        </mxCell>
        <mxCell id="UWP8bIiaMO9ewAU7Xk2l-598" value="" style="endArrow=classic;html=1;rounded=0;strokeWidth=3;" parent="1" edge="1">
          <mxGeometry width="50" height="50" relative="1" as="geometry">
            <mxPoint x="587.41" y="-905" as="sourcePoint" />
            <mxPoint x="587.41" y="-965" as="targetPoint" />
          </mxGeometry>
        </mxCell>
        <mxCell id="UWP8bIiaMO9ewAU7Xk2l-599" value="" style="endArrow=classic;html=1;rounded=0;strokeWidth=3;" parent="1" edge="1">
          <mxGeometry width="50" height="50" relative="1" as="geometry">
            <mxPoint x="587.58" y="-1125" as="sourcePoint" />
            <mxPoint x="587.58" y="-1185" as="targetPoint" />
          </mxGeometry>
        </mxCell>
        <mxCell id="UWP8bIiaMO9ewAU7Xk2l-600" value="&lt;span style=&quot;font-size: 28px;&quot;&gt;&lt;b&gt;[Y&lt;sub style=&quot;&quot;&gt;0&lt;/sub&gt;,&amp;nbsp; &amp;nbsp; &amp;nbsp; &amp;nbsp; &amp;nbsp;Y&lt;sub style=&quot;&quot;&gt;n&lt;/sub&gt;,&amp;nbsp; &amp;nbsp; &amp;nbsp; &amp;nbsp; &amp;nbsp;Y&lt;sub style=&quot;&quot;&gt;63&lt;/sub&gt;]&lt;/b&gt;&lt;/span&gt;" style="text;html=1;align=center;verticalAlign=middle;whiteSpace=wrap;rounded=0;" parent="1" vertex="1">
          <mxGeometry x="388" y="-1245" width="400" height="30" as="geometry" />
        </mxCell>
        <mxCell id="UWP8bIiaMO9ewAU7Xk2l-601" value="" style="endArrow=none;dashed=1;html=1;dashPattern=1 3;strokeWidth=2;rounded=0;" parent="1" edge="1">
          <mxGeometry width="50" height="50" relative="1" as="geometry">
            <mxPoint x="500" y="-1230.34" as="sourcePoint" />
            <mxPoint x="560" y="-1230.3400000000001" as="targetPoint" />
          </mxGeometry>
        </mxCell>
        <mxCell id="UWP8bIiaMO9ewAU7Xk2l-603" value="&lt;b style=&quot;font-size: 36px;&quot;&gt;rnn_src_ip&lt;/b&gt;" style="rounded=1;whiteSpace=wrap;html=1;" parent="1" vertex="1">
          <mxGeometry x="468" y="-1125" width="240" height="160" as="geometry" />
        </mxCell>
        <mxCell id="UWP8bIiaMO9ewAU7Xk2l-604" value="" style="endArrow=none;dashed=1;html=1;dashPattern=1 3;strokeWidth=2;rounded=0;" parent="1" edge="1">
          <mxGeometry width="50" height="50" relative="1" as="geometry">
            <mxPoint x="462" y="-866.59" as="sourcePoint" />
            <mxPoint x="542" y="-866.59" as="targetPoint" />
          </mxGeometry>
        </mxCell>
        <mxCell id="UWP8bIiaMO9ewAU7Xk2l-605" value="" style="endArrow=none;dashed=1;html=1;dashPattern=1 3;strokeWidth=2;rounded=0;" parent="1" edge="1">
          <mxGeometry width="50" height="50" relative="1" as="geometry">
            <mxPoint x="628" y="-866.59" as="sourcePoint" />
            <mxPoint x="708" y="-866.59" as="targetPoint" />
          </mxGeometry>
        </mxCell>
        <mxCell id="UWP8bIiaMO9ewAU7Xk2l-606" value="" style="endArrow=classic;html=1;rounded=0;strokeWidth=3;entryX=0.5;entryY=1;entryDx=0;entryDy=0;" parent="1" target="UWP8bIiaMO9ewAU7Xk2l-110" edge="1">
          <mxGeometry width="50" height="50" relative="1" as="geometry">
            <mxPoint x="586" y="-1275" as="sourcePoint" />
            <mxPoint x="597.58" y="-1175" as="targetPoint" />
          </mxGeometry>
        </mxCell>
        <mxCell id="UWP8bIiaMO9ewAU7Xk2l-607" value="" style="endArrow=classic;html=1;rounded=0;strokeWidth=3;" parent="1" edge="1">
          <mxGeometry width="50" height="50" relative="1" as="geometry">
            <mxPoint x="1528.5700000000002" y="-1445" as="sourcePoint" />
            <mxPoint x="1528.33" y="-1495" as="targetPoint" />
          </mxGeometry>
        </mxCell>
        <mxCell id="UWP8bIiaMO9ewAU7Xk2l-608" value="" style="endArrow=classic;html=1;rounded=0;strokeWidth=3;" parent="1" edge="1">
          <mxGeometry width="50" height="50" relative="1" as="geometry">
            <mxPoint x="1076" y="-1265" as="sourcePoint" />
            <mxPoint x="1536" y="-1365" as="targetPoint" />
          </mxGeometry>
        </mxCell>
        <mxCell id="UWP8bIiaMO9ewAU7Xk2l-609" value="" style="endArrow=classic;html=1;rounded=0;strokeWidth=3;" parent="1" edge="1">
          <mxGeometry width="50" height="50" relative="1" as="geometry">
            <mxPoint x="1536" y="-1265" as="sourcePoint" />
            <mxPoint x="1536" y="-1365" as="targetPoint" />
          </mxGeometry>
        </mxCell>
        <mxCell id="UWP8bIiaMO9ewAU7Xk2l-610" value="" style="endArrow=classic;html=1;rounded=0;strokeWidth=3;" parent="1" edge="1">
          <mxGeometry width="50" height="50" relative="1" as="geometry">
            <mxPoint x="2039.428431919643" y="-1255" as="sourcePoint" />
            <mxPoint x="1536" y="-1365" as="targetPoint" />
          </mxGeometry>
        </mxCell>
        <mxCell id="UWP8bIiaMO9ewAU7Xk2l-611" value="" style="endArrow=classic;html=1;rounded=0;strokeWidth=3;" parent="1" edge="1">
          <mxGeometry width="50" height="50" relative="1" as="geometry">
            <mxPoint x="2416" y="-1265" as="sourcePoint" />
            <mxPoint x="1546" y="-1365" as="targetPoint" />
          </mxGeometry>
        </mxCell>
        <mxCell id="70X7dg9EKqh0RciYQCIe-1" value="" style="endArrow=none;dashed=1;html=1;dashPattern=1 3;strokeWidth=2;rounded=0;" parent="1" edge="1">
          <mxGeometry width="50" height="50" relative="1" as="geometry">
            <mxPoint x="1445" y="-866.6700000000001" as="sourcePoint" />
            <mxPoint x="1525" y="-866.6700000000001" as="targetPoint" />
          </mxGeometry>
        </mxCell>
        <mxCell id="70X7dg9EKqh0RciYQCIe-2" value="" style="endArrow=none;dashed=1;html=1;dashPattern=1 3;strokeWidth=2;rounded=0;" parent="1" edge="1">
          <mxGeometry width="50" height="50" relative="1" as="geometry">
            <mxPoint x="1575" y="-866.6700000000001" as="sourcePoint" />
            <mxPoint x="1655" y="-866.6700000000001" as="targetPoint" />
          </mxGeometry>
        </mxCell>
        <mxCell id="70X7dg9EKqh0RciYQCIe-3" value="" style="endArrow=none;dashed=1;html=1;dashPattern=1 3;strokeWidth=2;rounded=0;" parent="1" edge="1">
          <mxGeometry width="50" height="50" relative="1" as="geometry">
            <mxPoint x="1919" y="-866.6700000000001" as="sourcePoint" />
            <mxPoint x="1999" y="-866.6700000000001" as="targetPoint" />
          </mxGeometry>
        </mxCell>
        <mxCell id="70X7dg9EKqh0RciYQCIe-4" value="" style="endArrow=none;dashed=1;html=1;dashPattern=1 3;strokeWidth=2;rounded=0;" parent="1" edge="1">
          <mxGeometry width="50" height="50" relative="1" as="geometry">
            <mxPoint x="2064.75" y="-866.6700000000001" as="sourcePoint" />
            <mxPoint x="2144.75" y="-866.6700000000001" as="targetPoint" />
          </mxGeometry>
        </mxCell>
        <mxCell id="70X7dg9EKqh0RciYQCIe-5" value="&lt;font color=&quot;#000000&quot;&gt;&lt;span style=&quot;font-size: 24px;&quot;&gt;&lt;b&gt;shape:&amp;nbsp;&amp;nbsp;&lt;/b&gt;&lt;/span&gt;&lt;b style=&quot;font-size: 24px; background-color: initial;&quot;&gt;[(batch_size, 145)]&lt;/b&gt;&lt;/font&gt;" style="text;html=1;align=center;verticalAlign=middle;whiteSpace=wrap;rounded=0;fillColor=#f5f5f5;fontColor=#333333;strokeColor=#666666;" parent="1" vertex="1">
          <mxGeometry x="1937.75" y="-1555" width="400" height="80" as="geometry" />
        </mxCell>
        <mxCell id="70X7dg9EKqh0RciYQCIe-6" value="&lt;font color=&quot;#000000&quot;&gt;&lt;span style=&quot;font-size: 24px;&quot;&gt;&lt;b&gt;input shape:&amp;nbsp;&amp;nbsp;&lt;/b&gt;&lt;/span&gt;&lt;b style=&quot;font-size: 24px; background-color: initial;&quot;&gt;[(batch_size, 145)]&lt;/b&gt;&lt;/font&gt;" style="text;html=1;align=center;verticalAlign=middle;whiteSpace=wrap;rounded=0;fillColor=#f5f5f5;fontColor=#333333;strokeColor=#666666;" parent="1" vertex="1">
          <mxGeometry x="2546" y="-906" width="400" height="80" as="geometry" />
        </mxCell>
        <mxCell id="70X7dg9EKqh0RciYQCIe-7" value="" style="endArrow=none;dashed=1;html=1;dashPattern=1 3;strokeWidth=2;rounded=0;" parent="1" edge="1">
          <mxGeometry width="50" height="50" relative="1" as="geometry">
            <mxPoint x="610" y="-1230.34" as="sourcePoint" />
            <mxPoint x="670" y="-1230.3400000000001" as="targetPoint" />
          </mxGeometry>
        </mxCell>
      </root>
    </mxGraphModel>
  </diagram>
</mxfile>
